Jump_normalized_Motion_pl08
version=1
nRows=19
nColumns=43
inDegrees=yes
endheader
time		pelvis_tilt		pelvis_list		pelvis_rotation		pelvis_tx		pelvis_ty		pelvis_tz		hip_flexion_r		hip_adduction_r		hip_rotation_r		knee_angle_r		ankle_angle_r		subtalar_angle_r		mtp_angle_r		hip_flexion_l		hip_adduction_l		hip_rotation_l		knee_angle_l		ankle_angle_l		subtalar_angle_l		mtp_angle_l		lumbar_extension		lumbar_bending		lumbar_rotation		neck_flexion		neck_lateral_bending		neck_rotation		arm_flex_r		arm_add_r		arm_rot_r		elbow_flex_r		pro_sup_r		wrist_flex_r		wrist_dev_r		hand_finger_flex_r		arm_flex_l		arm_add_l		arm_rot_l		elbow_flex_l		pro_sup_l		wrist_flex_l		wrist_dev_l		hand_finger_flex_l		
1.655000		-3.385413		-26.442288		87.909667		-0.001844		1.639732		1.640722		95.097521		-5.904286		13.582872		-132.227515		27.544591		1.535546		2.662798		90.907623		-6.256100		4.532453		-134.781545		30.079872		8.667242		8.724199		-46.599887		-3.554091		-1.746693		40.228012		5.191430		-1.710791		67.130469		-21.261389		12.835749		75.354210		97.829699		-5.899906		1.334919		-13.993044		73.041430		-15.985668		12.407172		65.947456		94.895354		-17.696535		4.707907		7.599757		
1.656818		-3.376073		-26.445353		87.871298		-0.001966		1.639510		1.639404		94.960050		-5.928124		13.597248		-132.282881		27.604274		1.625531		2.709348		90.705662		-6.320170		4.533160		-134.841182		30.185765		8.746382		8.798265		-46.467583		-3.599962		-1.704630		40.173294		5.238734		-1.723186		68.106472		-21.227344		13.359334		75.283628		97.503724		-5.868422		1.386657		-14.303199		73.944076		-15.856775		12.846903		65.836335		94.781923		-17.823212		4.652747		7.491949		
1.658636		-3.367225		-26.514316		87.848343		-0.002086		1.639134		1.638084		94.899432		-5.960489		13.609141		-132.358708		27.651981		1.683834		2.740816		90.587488		-6.376912		4.526795		-134.917017		30.273164		8.797964		8.849225		-46.254931		-3.639313		-1.674526		40.201650		5.285525		-1.740701		69.021276		-21.104327		13.746261		75.201484		97.288918		-5.836271		1.436785		-14.492914		74.797770		-15.670651		13.165237		65.735618		94.712056		-17.881081		4.634912		7.416916		
1.660455		-3.361001		-26.548338		87.824123		-0.002173		1.638819		1.636710		94.797485		-5.992839		13.622622		-132.438147		27.700480		1.754729		2.782756		90.423498		-6.440414		4.518046		-134.990478		30.363656		8.866476		8.921371		-46.078889		-3.687248		-1.650521		40.212761		5.333696		-1.750227		69.936342		-20.957380		14.132015		75.105244		96.926386		-5.871880		1.482337		-14.751864		75.664196		-15.489327		13.510377		65.625041		94.578569		-17.974017		4.599797		7.299132		
1.662273		-3.361766		-26.358924		87.768361		-0.002171		1.638968		1.635181		94.433211		-6.009793		13.645334		-132.491596		27.772908		1.920425		2.883258		89.971238		-6.537390		4.514880		-135.027666		30.496711		9.035381		9.098668		-46.157305		-3.772662		-1.623293		40.022602		5.386931		-1.726566		70.962351		-20.898799		14.760230		74.987527		95.920574		-6.111965		1.517056		-15.435311		76.656927		-15.425418		14.154449		65.466151		94.175804		-18.296013		4.445658		6.994099		
1.664091		-3.347225		-26.490938		87.766619		-0.002305		1.638450		1.633810		94.437360		-6.055166		13.662420		-132.577577		27.798915		1.949281		2.911971		89.925447		-6.578106		4.504404		-135.105186		30.574021		9.047532		9.152932		-45.864320		-3.811420		-1.605818		40.023921		5.476937		-1.766586		71.837833		-20.788133		15.141517		74.927297		95.718557		-6.038135		1.572118		-15.565038		77.468301		-15.264350		14.479994		65.421326		94.103622		-18.250310		4.454534		6.943446		
1.665909		-3.336860		-26.602211		87.761509		-0.002431		1.637999		1.632433		94.424579		-6.095259		13.679699		-132.656978		27.808172		1.991051		2.942352		89.849766		-6.619829		4.493747		-135.167626		30.647465		9.059761		9.210262		-45.589105		-3.849188		-1.589914		39.926031		5.577548		-1.794361		72.718439		-20.672378		15.523790		74.860055		95.511749		-5.953290		1.637547		-15.678285		78.293958		-15.139358		14.853520		65.372701		94.044679		-18.170787		4.474371		6.884316		
1.667727		-3.330648		-26.655427		87.747257		-0.002536		1.637680		1.631021		94.350412		-6.128905		13.697827		-132.729558		27.809462		2.060860		2.982418		89.696978		-6.669214		4.484015		-135.214843		30.724090		9.090931		9.283579		-45.374682		-3.892153		-1.575601		39.735185		5.679666		-1.802286		73.618026		-20.545316		15.921022		74.772589		95.206753		-5.903749		1.708781		-15.841737		79.151652		-15.049105		15.293240		65.300906		93.957707		-18.111968		4.483076		6.784937		
1.669545		-3.308951		-26.768861		87.746605		-0.002674		1.637173		1.629554		94.333476		-6.182790		13.714926		-132.832968		27.825822		2.099677		3.006824		89.620152		-6.708916		4.474710		-135.301406		30.794303		9.097405		9.324303		-45.090013		-3.931763		-1.571191		39.779577		5.754871		-1.820648		74.464075		-20.322654		16.169121		74.650146		95.051775		-5.864523		1.768439		-15.918264		79.952274		-14.852345		15.541929		65.207585		93.912442		-18.067121		4.500130		6.717520		
1.671364		-3.298787		-26.860042		87.746310		-0.002781		1.636795		1.628107		94.292437		-6.227835		13.722163		-132.910101		27.825942		2.155877		3.032605		89.514648		-6.745444		4.467234		-135.362994		30.867935		9.101611		9.365559		-44.833169		-3.964555		-1.565029		39.728315		5.840619		-1.834278		75.328271		-20.125717		16.469134		74.538175		94.878976		-5.812005		1.833435		-15.991187		80.777579		-14.691642		15.869934		65.117638		93.869743		-17.999956		4.515420		6.647523		
1.673182		-3.295880		-26.839734		87.740564		-0.002873		1.636667		1.626567		94.118022		-6.278508		13.738758		-132.973521		27.830954		2.252012		3.099239		89.260491		-6.781933		4.447869		-135.402852		30.943562		9.117392		9.456338		-44.706858		-4.003786		-1.570434		39.605055		5.925683		-1.817475		76.235516		-19.947876		16.844555		74.417723		94.400819		-5.837437		1.874144		-16.217973		81.654335		-14.583119		16.311274		65.006475		93.661077		-17.992907		4.455899		6.441538		
1.675000		-3.298661		-26.645975		87.725538		-0.002957		1.636886		1.624856		93.734706		-6.343471		13.776428		-133.028684		27.853143		2.405050		3.233196		88.774510		-6.820118		4.407675		-135.420367		31.020615		9.153725		9.629358		-44.782643		-4.057538		-1.596088		39.414941		6.003752		-1.752581		77.204430		-19.787570		17.316813		74.277318		93.423634		-6.000173		1.871409		-16.703196		82.603130		-14.541531		16.897442		64.858079		93.174371		-18.098450		4.272674		6.010343		
1.676818		-3.271365		-26.833135		87.724175		-0.003109		1.636453		1.623402		93.788862		-6.386729		13.771718		-133.077005		27.835604		2.429933		3.249733		88.752202		-6.846455		4.405838		-135.455159		31.080882		9.127160		9.653730		-44.430249		-4.071390		-1.568418		39.420051		6.070857		-1.795858		78.001092		-19.609018		17.558111		74.246557		93.391291		-5.918353		1.914711		-16.727095		83.352722		-14.351162		17.114414		64.821810		93.164169		-17.995488		4.303038		5.986977		
1.678636		-3.239639		-26.945688		87.719732		-0.003201		1.635979		1.621856		93.768504		-6.417898		13.766457		-133.168431		27.796818		2.477160		3.275653		88.660732		-6.888858		4.412839		-135.541892		31.146734		9.098737		9.687333		-44.126015		-4.095124		-1.534125		39.327560		6.139729		-1.822547		78.812312		-19.476403		17.875845		74.190130		93.308498		-5.836729		1.974065		-16.775710		84.138733		-14.211430		17.453494		64.743908		93.141641		-17.865929		4.326313		5.941921		
1.680455		-3.203077		-26.978609		87.705991		-0.003255		1.635609		1.620226		93.657096		-6.436935		13.757968		-133.268659		27.746975		2.544657		3.318407		88.473987		-6.947788		4.423078		-135.637334		31.213289		9.077824		9.735758		-43.899818		-4.126854		-1.489588		39.155816		6.207077		-1.832442		79.641909		-19.372778		18.245568		74.130662		93.139072		-5.781203		2.030975		-16.873454		84.961098		-14.108147		17.877657		64.636719		93.078099		-17.731231		4.312537		5.849153		
1.682273		-3.159978		-26.906928		87.669894		-0.003301		1.635628		1.618513		93.406661		-6.441340		13.740789		-133.317705		27.702206		2.632740		3.394772		88.125905		-7.027382		4.427125		-135.665409		31.271900		9.082781		9.812031		-43.821046		-4.164783		-1.426241		38.921997		6.266676		-1.821814		80.500426		-19.273440		18.633672		74.108268		92.800559		-5.803621		2.051660		-17.074093		85.826969		-14.023069		18.337274		64.516605		92.913700		-17.628991		4.200364		5.652287		
1.684091		-3.132700		-26.975850		87.652873		-0.003339		1.635304		1.616837		93.313078		-6.458730		13.730655		-133.394900		27.677110		2.676401		3.434303		87.955015		-7.088499		4.429615		-135.743405		31.331714		9.077792		9.852631		-43.566940		-4.197103		-1.394003		38.909115		6.317494		-1.837874		81.294830		-19.092934		18.896022		74.031586		92.658514		-5.785325		2.090226		-17.162181		86.594997		-13.837849		18.598324		64.401721		92.847074		-17.538970		4.169906		5.555564		
1.685909		-3.098416		-26.904427		87.614777		-0.003290		1.635308		1.615039		93.042973		-6.449625		13.711633		-133.446232		27.647273		2.729338		3.543876		87.602819		-7.182789		4.434998		-135.793447		31.396051		9.103986		9.951997		-43.483841		-4.251808		-1.338810		38.841301		6.359407		-1.847901		82.142045		-18.962777		19.243971		73.961593		92.260440		-5.858292		2.096183		-17.421636		87.434003		-13.674278		18.950748		64.233295		92.625525		-17.416647		3.998855		5.277675		
1.687727		-3.056389		-26.721937		87.559332		-0.003182		1.635602		1.613140		92.631726		-6.421047		13.684679		-133.468838		27.607815		2.793634		3.708415		87.102766		-7.304268		4.440925		-135.809776		31.460474		9.154052		10.097778		-43.538353		-4.322164		-1.263444		38.698608		6.397060		-1.852173		83.029066		-18.881544		19.667766		73.910858		91.660862		-5.997389		2.075911		-17.815441		88.329121		-13.540895		19.388290		64.032737		92.284968		-17.264561		3.718834		4.859002		
